<?xml version="1.0" standalone="no"?>
<!DOCTYPE svg PUBLIC "-//W3C//DTD SVG 20010904//EN"
 "http://www.w3.org/TR/2001/REC-SVG-20010904/DTD/svg10.dtd">
<svg version="1.0" xmlns="http://www.w3.org/2000/svg"
 width="500.000000pt" height="500.000000pt" viewBox="0 0 500.000000 500.000000"
 preserveAspectRatio="xMidYMid meet">
<metadata>
Created by potrace 1.14, written by Peter Selinger 2001-2017
</metadata>
<g transform="translate(0.000000,500.000000) scale(0.100000,-0.100000)"
fill="#000000" stroke="none">
<path d="M2305 4864 c-47 -26 -73 -54 -90 -98 -15 -39 -17 -71 -16 -226 0 -36
-1 -76 -3 -90 -2 -14 -4 -31 -5 -38 -1 -8 -24 3 -61 28 -73 50 -93 70 -131
138 -40 69 -61 80 -85 44 -36 -54 -26 -366 15 -475 17 -44 14 -52 -22 -54 -31
-3 -36 1 -60 45 -52 96 -80 208 -80 317 0 94 6 135 22 148 40 33 71 91 71 133
0 35 -5 47 -30 68 -39 32 -82 40 -178 32 -193 -15 -247 -116 -155 -290 85
-162 113 -237 138 -381 3 -16 7 -42 10 -57 6 -31 1 -33 -95 -43 -36 -4 -72 -9
-80 -10 -8 -1 -43 -6 -78 -10 -34 -4 -65 -11 -68 -16 -3 -5 -13 -9 -22 -9 -9
0 -35 -20 -58 -44 -37 -40 -64 -96 -83 -171 -10 -42 -3 -284 11 -360 15 -78
15 -81 -7 -116 -47 -73 -114 -218 -163 -349 -128 -343 -260 -612 -497 -1010
-268 -451 -328 -586 -327 -740 1 -111 104 -367 190 -477 49 -61 126 -103 189
-103 97 0 250 76 343 169 51 52 78 89 215 301 105 162 223 288 363 384 58 40
81 50 119 52 247 13 274 15 418 40 216 37 421 133 550 258 45 44 113 140 137
192 l19 45 18 -23 c17 -23 54 -79 126 -193 126 -199 306 -559 430 -860 31 -77
61 -149 66 -160 26 -61 89 -232 89 -243 0 -7 4 -20 10 -30 9 -16 89 -267 95
-301 2 -9 4 -16 5 -16 1 0 3 -7 5 -15 2 -8 11 -40 20 -70 9 -30 23 -83 31
-118 l16 -62 683 0 683 0 0 1211 -1 1210 -73 115 c-89 139 -251 366 -329 461
-5 7 -15 18 -20 25 -246 306 -570 623 -816 798 -76 53 -190 130 -195 130 -2 0
-27 15 -56 33 -145 91 -379 193 -545 237 -42 10 -43 12 -44 53 0 23 -2 53 -4
67 -24 187 -24 237 -3 297 49 143 14 159 -122 57 -69 -52 -152 -134 -200 -199
-27 -36 -128 -202 -135 -221 0 -1 -21 -5 -46 -8 -65 -9 -71 3 -49 90 23 87 65
174 116 236 53 63 100 146 108 185 7 39 -21 75 -69 90 -52 17 -176 15 -210 -3z"/>
</g>
</svg>
